<?xml version="1.0" encoding="utf-8"?>
<!-- Generator: Adobe Illustrator 23.0.3, SVG Export Plug-In . SVG Version: 6.00 Build 0)  -->
<svg version="1.1" xmlns="http://www.w3.org/2000/svg" xmlns:xlink="http://www.w3.org/1999/xlink" x="0px" y="0px"
	 viewBox="0 0 2000 2000" enable-background="new 0 0 2000 2000" xml:space="preserve">
<g id="SYMBOL_LOGO_BLUE">
	<path display="none" fill="#FFFFFF" d="M-571,29.2c1037.5,0,2075,0,3112.5,0c0,648.7,0,1297.5,0,1946.2c-1037.5,0-2075,0-3112.5,0
		C-571,1326.6-571,677.9-571,29.2z M1569,947.4c-0.6-330.5-263.1-598.5-594.6-602.2C635.7,341.4,371,618.3,368.9,943.9
		c-2.2,330.3,266.1,606.3,603.9,605.4C1300.2,1548.3,1568.9,1277.8,1569,947.4z"/>
	<path fill="#FFFFFF" stroke="#FFFFFF" stroke-miterlimit="10" d="M1474.5,1140.3c0,94.3,0,188.5,0,282.8c0,25.4-8.8,33.8-35.9,33.9
		c-49.2,0.1-98.4,0-147.7-0.2c-27.5-0.1-38-9.8-38-34.7c0.1-186.3,0.2-372.6,0.5-558.8c0-33.2,7.6-39.7,43-39.7
		c46.8,0,93.5-0.4,140.3-0.3c29.1,0.1,37.5,7.7,37.5,34.3c0.2,94.3,0.1,188.5,0.1,282.8C1474.4,1140.3,1474.4,1140.3,1474.5,1140.3z
		"/>
	<path fill="#FFFFFF" stroke="#FFFFFF" stroke-miterlimit="10" d="M931.5,1245.7c0-58.1-0.1-116.2,0.1-174.3
		c0.1-25.1,8.6-32.4,36.8-32.4c48,0,95.9,0.1,143.9,0.3c29.6,0.1,39.4,8.4,39.5,34.7c0.3,116.7,0.3,233.5,0.2,350.2
		c0,22.8-11.1,32.7-36,32.7c-49.2,0.1-98.4,0.1-147.6-0.1c-26.2-0.1-36.8-9.9-36.9-33.5C931.3,1364.2,931.4,1305,931.5,1245.7
		C931.4,1245.7,931.5,1245.7,931.5,1245.7z"/>
	<path fill="#FFFFFF" stroke="#FFFFFF" stroke-miterlimit="10" d="M821.9,1329.3c0,32.7,0.2,65.3-0.1,98
		c-0.2,21.4-9.6,29.5-34.6,29.6c-49.7,0.2-99.5,0.3-149.2,0.1c-24.4-0.1-34.9-9.2-34.9-29.8c-0.1-65.3-0.1-130.7,0-196
		c0-22.4,9.5-30.5,35.4-30.5c49.1,0,98.3,0.1,147.4,0.3c26.4,0.1,35.4,7.8,35.6,30.3c0.2,32.7,0.1,65.3,0.1,98
		C821.6,1329.3,821.8,1329.3,821.9,1329.3z"/>
	<path fill="#FFFFFF" stroke="#FFFFFF" stroke-width="3" stroke-miterlimit="10" d="M787,1094c-53.5,23.3-107.1,46.6-160.6,69.9
		c-96.3-186.3-29.5-417.5,149-522.9C950.8,537.3,1181,586.5,1299.8,755c-40.6,35-81.2,70.1-121.8,105.1
		c43.8-60.5,43.4-99,35.9-121.9c-31.4-96.1-261.7-145.5-413-54.7c-144.8,86.9-215.4,301.2-146.6,377.9
		C669.2,1078,703.4,1102.4,787,1094z"/>
	<path fill="#FFFFFF" stroke="#FFFFFF" stroke-miterlimit="10" d="M766,595.3c2.3-90.4,4.5-180.9,6.8-271.4
		c52.1,73.4,104.3,146.8,156.4,220.1C874.7,561.2,821.2,578,766,595.3z"/>
	<path fill="#FFFFFF" stroke="#FFFFFF" stroke-miterlimit="10" d="M1156,306.4c8,90.1,16,180.2,24,270
		c-55.5-12.3-108.5-24-164.2-36.3"/>
	<path fill="#FFFFFF" stroke="#FFFFFF" stroke-miterlimit="10" d="M528.6,977.3c-76.3-47-150.9-92.8-225.4-138.7
		c87.2-8.1,174.3-16.2,261.5-24.2C552.5,869.2,540.9,922,528.6,977.3z"/>
	<path fill="#FFFFFF" stroke="#FFFFFF" stroke-miterlimit="10" d="M707.3,631.1c-36.7,41.1-71.2,79.7-108,120.9
		c-43.6-77.4-87-154.5-130.4-231.5C548.4,557.3,627.8,594.2,707.3,631.1z"/>
	<path fill="#FFFFFF" stroke="#FFFFFF" stroke-miterlimit="10" d="M530.8,1049.7c11.6,42.8,22.5,82.8,34.4,126.4
		c-81.8,15.7-162.6,29.1-245.2,25.6"/>
	<path fill="#FFFFFF" stroke="#FFFFFF" stroke-miterlimit="10" d="M1245.3,621.8c32.8,29.8,63.4,57.8,96.8,88.2
		c51.3-65.7,100-131.5,134.5-206.6"/>
</g>
<g id="Text" display="none">
	<g display="inline">
		<path fill="#FFFFFF" stroke="#FFFFFF" stroke-miterlimit="10" d="M515.1,1620.1v34.1H406.6v-121.9h104.5v34.1H447v10.5h59.1v29.6
			H447v13.5H515.1z"/>
		<path fill="#FFFFFF" stroke="#FFFFFF" stroke-miterlimit="10" d="M653.8,1654.3h-45.6l-28.6-39.9l-13.2,17.1v22.8H526v-121.9h40.4
			v48.3l37.3-48.3H643l-39.7,51.4L653.8,1654.3z"/>
		<path fill="#FFFFFF" stroke="#FFFFFF" stroke-miterlimit="10" d="M778,1593.3c0,46.2-34.4,63.9-66.9,63.9
			c-32.5,0-66.9-17.7-66.9-63.9c0-46.2,34.4-63.9,66.9-63.9S778,1547.1,778,1593.3z M738.2,1593.3c0-22.6-14.4-29.8-27.1-29.8
			c-12.6,0-27.1,7.1-27.1,29.8s14.4,29.8,27.1,29.8C723.7,1623.1,738.2,1616,738.2,1593.3z"/>
		<path fill="#FFFFFF" stroke="#FFFFFF" stroke-miterlimit="10" d="M909.2,1532.4v121.9h-40.4l-40.8-64v64h-40.4v-121.9H828v0
			l40.8,64v-64.1H909.2z"/>
		<path fill="#FFFFFF" stroke="#FFFFFF" stroke-miterlimit="10" d="M1052.6,1593.3c0,46.2-34.4,63.9-66.9,63.9
			c-32.5,0-66.9-17.7-66.9-63.9c0-46.2,34.4-63.9,66.9-63.9C1018.2,1529.4,1052.6,1547.1,1052.6,1593.3z M1012.8,1593.3
			c0-22.6-14.4-29.8-27.1-29.8s-27.1,7.1-27.1,29.8s14.4,29.8,27.1,29.8S1012.8,1616,1012.8,1593.3z"/>
		<path fill="#FFFFFF" stroke="#FFFFFF" stroke-miterlimit="10" d="M1173.5,1532.4v34.1h-38.8v87.7h-40.5v-87.7h-38.8v-34.1H1173.5z
			"/>
		<path fill="#FFFFFF" stroke="#FFFFFF" stroke-miterlimit="10" d="M1302.7,1654.3h-41.9l-17.4-32.8c-3.6,0.2-7.3,0.3-11.1,0.3h-11
			v32.5h-40.4v-121.9h51.5c33.9,0,62.5,7.9,62.5,44.7c0,16.4-5.7,27.1-15,33.9L1302.7,1654.3z M1254.9,1577.1
			c0-5.4-3.7-10.5-13.5-10.5h-20.3v21.1h20.3C1251.3,1587.6,1254.9,1582.4,1254.9,1577.1z"/>
		<path fill="#FFFFFF" stroke="#FFFFFF" stroke-miterlimit="10" d="M1446.2,1654.3h-41.8l-6.1-17.5H1351l-6.1,17.5h-41.8l42.7-121.9
			h57.5L1446.2,1654.3z M1387.8,1607.1l-13.2-37.6l-13.2,37.6H1387.8z"/>
		<path fill="#FFFFFF" stroke="#FFFFFF" stroke-miterlimit="10" d="M1574.9,1601.5c-3.8,40.2-36,55.7-66.5,55.7
			c-32.5,0-66.9-17.6-66.9-63.9s34.4-63.9,66.9-63.9c24.7,0,50.5,10.2,61.4,35.5l-36.5,15.2c-4.5-12.3-15.2-16.5-25-16.5
			c-12.6,0-27.1,7.1-27.1,29.8s14.4,29.8,27.1,29.8c11,0,23.3-5.4,26.3-21.6H1574.9z"/>
		<path fill="#FFFFFF" stroke="#FFFFFF" stroke-miterlimit="10" d="M1710.9,1654.3h-45.6l-28.6-39.9l-13.2,17.1v22.8h-40.4v-121.9
			h40.4v48.3l37.3-48.3h39.2l-39.7,51.4L1710.9,1654.3z"/>
	</g>
</g>
</svg>
