<?xml version="1.0" encoding="utf-8"?>
<!-- Generator: Adobe Illustrator 23.0.3, SVG Export Plug-In . SVG Version: 6.00 Build 0)  -->
<svg version="1.1" xmlns="http://www.w3.org/2000/svg" xmlns:xlink="http://www.w3.org/1999/xlink" x="0px" y="0px"
	 viewBox="0 0 2000 2000" enable-background="new 0 0 2000 2000" xml:space="preserve">
<g id="SYMBOL_LOGO_BLUE">
	<path display="none" fill="#FFFFFF" d="M-571,29.2c1037.5,0,2075,0,3112.5,0c0,648.7,0,1297.5,0,1946.2c-1037.5,0-2075,0-3112.5,0
		C-571,1326.6-571,677.9-571,29.2z M1569,947.4c-0.6-330.5-263.1-598.5-594.6-602.2C635.7,341.4,371,618.3,368.9,943.9
		c-2.2,330.3,266.1,606.3,603.9,605.4C1300.2,1548.3,1568.9,1277.8,1569,947.4z"/>
	<path fill="#0032A1" d="M1441.2,1204.9c0,94.3,0,188.5,0,282.8c0,25.4-8.8,33.8-35.9,33.9c-49.2,0.1-98.4,0-147.7-0.2
		c-27.5-0.1-38-9.8-38-34.7c0.1-186.3,0.2-372.6,0.5-558.8c0-33.2,7.6-39.7,43-39.7c46.8,0,93.5-0.4,140.3-0.3
		c29.1,0.1,37.5,7.7,37.5,34.3c0.2,94.3,0.1,188.5,0.1,282.8C1441,1204.9,1441.1,1204.9,1441.2,1204.9z"/>
	<path fill="#0032A1" d="M898.1,1310.2c0-58.1-0.1-116.2,0.1-174.3c0.1-25.1,8.6-32.4,36.8-32.4c48,0,95.9,0.1,143.9,0.3
		c29.6,0.1,39.4,8.4,39.5,34.7c0.3,116.7,0.3,233.5,0.2,350.2c0,22.8-11.1,32.7-36,32.7c-49.2,0.1-98.4,0.1-147.6-0.1
		c-26.2-0.1-36.8-9.9-36.9-33.5C898,1428.7,898,1369.5,898.1,1310.2C898.1,1310.2,898.1,1310.2,898.1,1310.2z"/>
	<path fill="#0032A1" d="M788.5,1393.8c0,32.7,0.2,65.3-0.1,98c-0.2,21.4-9.6,29.5-34.6,29.6c-49.7,0.2-99.5,0.3-149.2,0.1
		c-24.4-0.1-34.9-9.2-34.9-29.8c-0.1-65.3-0.1-130.7,0-196c0-22.4,9.5-30.5,35.4-30.5c49.1,0,98.3,0.1,147.4,0.3
		c26.4,0.1,35.4,7.8,35.6,30.3c0.2,32.7,0.1,65.3,0.1,98C788.3,1393.8,788.4,1393.8,788.5,1393.8z"/>
	<path fill="#0032A1" stroke="#0032A1" stroke-width="3" stroke-miterlimit="10" d="M753.6,1158.5c-53.5,23.3-107.1,46.6-160.6,69.9
		c-96.3-186.3-29.5-417.5,149-522.9c175.5-103.6,405.7-54.4,524.5,114.1c-40.6,35-81.2,70.1-121.8,105.1
		c43.8-60.5,43.4-99,35.9-121.9c-31.4-96.1-261.7-145.5-413-54.7c-144.8,86.9-215.4,301.2-146.6,377.9
		C635.8,1142.5,670.1,1166.9,753.6,1158.5z"/>
	<path fill="#0032A1" d="M732.6,659.8c2.3-90.4,4.5-180.9,6.8-271.4c52.1,73.4,104.3,146.8,156.4,220.1
		C841.3,625.7,787.8,642.5,732.6,659.8z"/>
	<path fill="#0032A1" d="M1122.6,370.9c8,90.1,16,180.2,24,270c-55.5-12.3-108.5-24-164.2-36.3"/>
	<path fill="#0032A1" d="M495.3,1041.8c-76.3-47-150.9-92.8-225.4-138.7c87.2-8.1,174.3-16.2,261.5-24.2
		C519.2,933.7,507.5,986.5,495.3,1041.8z"/>
	<path fill="#0032A1" d="M673.9,695.6c-36.7,41.1-71.2,79.7-108,120.9c-43.6-77.4-87-154.5-130.4-231.5
		C515,621.8,594.5,658.7,673.9,695.6z"/>
	<path fill="#0032A1" d="M497.4,1114.2c11.6,42.8,22.5,82.8,34.4,126.4c-81.8,15.7-162.6,29.1-245.2,25.6"/>
	<path d="M1527.5,793.1"/>
	<path d="M1555.4,828"/>
	<path d="M1339.3,799.3"/>
	<path d="M866.5,1050.3"/>
	<path fill="#0032A1" d="M1212,686.3c32.8,29.8,63.4,57.8,96.8,88.2c51.3-65.7,100-131.5,134.5-206.6"/>
	<path d="M1469.3,815.2"/>
	<path d="M1479.7,809.4"/>
	<path fill="#0032A1" d="M-213.8-1039.1"/>
	<path fill="#0032A1" stroke="#0000FF" stroke-width="10" stroke-miterlimit="10" d="M962,817.9"/>
	<path fill="#0032A1" d="M1541,1453.3"/>
</g>
<g id="Text" display="none">
	<g display="inline">
		<path fill="#0032A1" d="M486.7,1608v34.1H378.2v-121.9h104.5v34.1h-64.1v10.5h59.1v29.6h-59.1v13.5H486.7z"/>
		<path fill="#0032A1" d="M625.4,1642.2h-45.6l-28.6-39.9l-13.2,17.1v22.8h-40.4v-121.9h40.4v48.3l37.3-48.3h39.2l-39.7,51.4
			L625.4,1642.2z"/>
		<path fill="#0032A1" d="M749.6,1581.2c0,46.2-34.4,63.9-66.9,63.9c-32.5,0-66.9-17.7-66.9-63.9c0-46.2,34.4-63.9,66.9-63.9
			S749.6,1535,749.6,1581.2z M709.8,1581.2c0-22.6-14.4-29.8-27.1-29.8c-12.6,0-27.1,7.1-27.1,29.8s14.4,29.8,27.1,29.8
			C695.3,1611,709.8,1603.9,709.8,1581.2z"/>
		<path fill="#0032A1" d="M880.9,1520.3v121.9h-40.4l-40.8-64v64h-40.4v-121.9h40.4v0l40.8,64v-64.1H880.9z"/>
		<path fill="#0032A1" d="M1024.2,1581.2c0,46.2-34.4,63.9-66.9,63.9c-32.5,0-66.9-17.7-66.9-63.9c0-46.2,34.4-63.9,66.9-63.9
			C989.8,1517.3,1024.2,1535,1024.2,1581.2z M984.4,1581.2c0-22.6-14.4-29.8-27.1-29.8s-27.1,7.1-27.1,29.8s14.4,29.8,27.1,29.8
			S984.4,1603.9,984.4,1581.2z"/>
		<path fill="#0032A1" d="M1145.1,1520.3v34.1h-38.8v87.7h-40.5v-87.7H1027v-34.1H1145.1z"/>
		<path fill="#0032A1" d="M1274.3,1642.2h-41.9l-17.4-32.8c-3.6,0.2-7.3,0.3-11.1,0.3h-11v32.5h-40.4v-121.9h51.5
			c33.9,0,62.5,7.9,62.5,44.7c0,16.4-5.7,27.1-15,33.9L1274.3,1642.2z M1226.5,1565c0-5.4-3.7-10.5-13.5-10.5h-20.3v21.1h20.3
			C1222.9,1575.5,1226.5,1570.3,1226.5,1565z"/>
		<path fill="#0032A1" d="M1417.8,1642.2H1376l-6.1-17.5h-47.2l-6.1,17.5h-41.8l42.7-121.9h57.5L1417.8,1642.2z M1359.5,1595
			l-13.2-37.6l-13.2,37.6H1359.5z"/>
		<path fill="#0032A1" d="M1546.5,1589.4c-3.8,40.2-36,55.7-66.5,55.7c-32.5,0-66.9-17.6-66.9-63.9s34.4-63.9,66.9-63.9
			c24.7,0,50.5,10.2,61.4,35.5L1505,1568c-4.5-12.3-15.2-16.5-25-16.5c-12.6,0-27.1,7.1-27.1,29.8s14.4,29.8,27.1,29.8
			c11,0,23.3-5.4,26.3-21.6H1546.5z"/>
		<path fill="#0032A1" d="M1682.5,1642.2h-45.6l-28.6-39.9l-13.2,17.1v22.8h-40.4v-121.9h40.4v48.3l37.3-48.3h39.2l-39.7,51.4
			L1682.5,1642.2z"/>
	</g>
</g>
<g id="Synbol_logo_white">
</g>
</svg>
